<svg id="Layer_1" data-name="Layer 1" xmlns="http://www.w3.org/2000/svg" xmlns:xlink="http://www.w3.org/1999/xlink" viewBox="0 0 232.06 184.92"><defs><style>.cls-1{fill:url(#linear-gradient);}</style><linearGradient id="linear-gradient" x1="179.75" y1="284.34" x2="411.81" y2="284.34" gradientUnits="userSpaceOnUse"><stop offset="0" stop-color="#cd3515"/><stop offset="0.49" stop-color="#f37b55"/><stop offset="0.98" stop-color="#ffc183"/></linearGradient></defs><path class="cls-1" d="M221.75,376.8c-9.34,0-22.33-1.13-23.56-7.26-1-5,8.61-13.09,54.64-30.68h0a7.62,7.62,0,0,1-2.73,1.79c-45.91,17.74-47.83,27.35-47.7,28,0,0,.63,2.5,12.13,3.41a117.87,117.87,0,0,0,12.24.23,7,7,0,0,0,1-.1l36.75-6.33.48-.1L318.38,353c.23-.06.46-.12.68-.2l41.83-14.32c44.61-17.16,46.93-25.56,46.58-27.72-.29-1.78-3.86-7.5-37-9h-.6c-.77,0-1.88-.07-3.52-.17h0c-11.42-.49-50.07-1.81-130.3-1.65h-.67c-34.12,0-52.19-5.42-55.23-16.58-4.93-18.14,33.7-42.36,38.12-45.06l0,0c1.41-1,5.32-3.07,16.66-8.4,9.13-4.3,23.48-10.76,40-17.15,28.63-11.09,68.29-23.64,94.73-20.42,13.9,1.69,20.78,5.07,21.66,10.65,1.61,10.18-20.38,21.23-24.8,23.34l-.15.06c-.42.16-41.85,16.08-64.77,21.78l-.61.13-7.1,1.17c21.67-5.34,66.88-25.49,70.69-27.07l.42-.19c9.76-4.71,22.88-13.46,22.08-18.52-.23-1.48-2.45-5.12-17.93-7-20-2.43-51.52,4.35-91.23,19.6a576.84,576.84,0,0,0-56.36,25.1l-.38.22-.69.42c-11.23,6.87-39.64,27.46-36.19,40.13,1.68,6.14,12,13.42,51.75,13.37,49.89-.1,83.64.39,103.17.82,11.37.26,19.16.51,23.69.68,1.93.07,3.43.13,4.6.19,37.92,1.3,43.38,7.89,44.18,12.75.89,5.48-3.26,14.82-49.38,32.57L320.14,357c-.22.08-.45.14-.68.2l-53.65,12.86-.48.1-36.53,6.33c-.31.06-1.09.12-1.66.17C225.62,376.8,223.77,376.8,221.75,376.8Z" transform="translate(-179.75 -191.88)"/><path class="cls-1" d="M221.75,376.8c-9.34,0-22.33-1.13-23.56-7.26-1-5,8.61-13.09,54.64-30.68h0a7.62,7.62,0,0,1-2.73,1.79c-45.91,17.74-47.83,27.35-47.7,28,0,0,.63,2.5,12.13,3.41a117.87,117.87,0,0,0,12.24.23,7,7,0,0,0,1-.1l36.75-6.33.48-.1L318.38,353c.23-.06.46-.12.68-.2l41.83-14.32c44.61-17.16,46.93-25.56,46.58-27.72-.29-1.78-3.86-7.5-37-9h-.6c-.77,0-1.88-.07-3.52-.17h0c-11.42-.49-50.07-1.81-130.3-1.65h-.67c-34.12,0-52.19-5.42-55.23-16.58-4.93-18.14,33.7-42.36,38.12-45.06l0,0c1.41-1,5.32-3.07,16.66-8.4,9.13-4.3,23.48-10.76,40-17.15,28.63-11.09,68.29-23.64,94.73-20.42,13.9,1.69,20.78,5.07,21.66,10.65,1.61,10.18-20.38,21.23-24.8,23.34l-.15.06c-.42.16-41.85,16.08-64.77,21.78l-.61.13-7.1,1.17c21.67-5.34,66.88-25.49,70.69-27.07l.42-.19c9.76-4.71,22.88-13.46,22.08-18.52-.23-1.48-2.45-5.12-17.93-7-20-2.43-51.52,4.35-91.23,19.6a576.84,576.84,0,0,0-56.36,25.1l-.38.22-.69.42c-11.23,6.87-39.64,27.46-36.19,40.13,1.68,6.14,12,13.42,51.75,13.37,49.89-.1,83.64.39,103.17.82,11.37.26,19.16.51,23.69.68,1.93.07,3.43.13,4.6.19,37.92,1.3,43.38,7.89,44.18,12.75.89,5.48-3.26,14.82-49.38,32.57L320.14,357c-.22.08-.45.14-.68.2l-53.65,12.86-.48.1-36.53,6.33c-.31.06-1.09.12-1.66.17C225.62,376.8,223.77,376.8,221.75,376.8Z" transform="translate(-179.75 -191.88)"/></svg>